PathFileType	4	(X/Y/Z)	/Users/itak/Documents/Research/Walk-IL/dataset/trc/00052_00006.trc
DataRate	CameraRate	NumFrames	NumMarkers	Units	OrigDataRate	OrigDataStartFrame	OrigNumFrames
100.000000	100.000000	4	53	mm	100.000000	397	530
Frame#	Time	RPSI			LPSI			L3			STRN			T10			C7			CLAV			RBAK			LBAK			LSHO			LUPA			LAEL			LAOL			LWTS			LWPS			LFRA			LIFD			LHPS			LHTS			RSHO			RUPA			RAEL			RAOL			RWTS			RWPS			RFRA			RIFD			RHTS			RHPS			RBHD			LFHD			RFHD			LBHD			LHIP			RHIP			RASI			LASI			LKNE			LTHI			LANK			LTIP			LTOE			LMT1			LMT5			LHEE			RKNE			RTHI			RANK			RTIP			RTOE			RMT1			RMT5			RHEE			
		X1	Y1	Z1	X2	Y2	Z2	X3	Y3	Z3	X4	Y4	Z4	X5	Y5	Z5	X6	Y6	Z6	X7	Y7	Z7	X8	Y8	Z8	X9	Y9	Z9	X10	Y10	Z10	X11	Y11	Z11	X12	Y12	Z12	X13	Y13	Z13	X14	Y14	Z14	X15	Y15	Z15	X16	Y16	Z16	X17	Y17	Z17	X18	Y18	Z18	X19	Y19	Z19	X20	Y20	Z20	X21	Y21	Z21	X22	Y22	Z22	X23	Y23	Z23	X24	Y24	Z24	X25	Y25	Z25	X26	Y26	Z26	X27	Y27	Z27	X28	Y28	Z28	X29	Y29	Z29	X30	Y30	Z30	X31	Y31	Z31	X32	Y32	Z32	X33	Y33	Z33	X34	Y34	Z34	X35	Y35	Z35	X36	Y36	Z36	X37	Y37	Z37	X38	Y38	Z38	X39	Y39	Z39	X40	Y40	Z40	X41	Y41	Z41	X42	Y42	Z42	X43	Y43	Z43	X44	Y44	Z44	X45	Y45	Z45	X46	Y46	Z46	X47	Y47	Z47	X48	Y48	Z48	X49	Y49	Z49	X50	Y50	Z50	X51	Y51	Z51	X52	Y52	Z52	X53	Y53	Z53	

398	3.97	-596.0883178710938	1037.711059570312	-77.34785461425781	-617.2576904296875	1029.58447265625	-251.7637786865234	-599.2640991210938	1095.283935546875	-168.0274810791016	-320.5735168457031	1268.12451171875	-180.9571838378906	-595.2767944335938	1230.323364257812	-171.182373046875	-510.9799499511719	1489.364379882812	-184.4298400878906	-338.731201171875	1385.564208984375	-185.2712707519531	-580.8330688476562	1358.610717773438	-102.4631958007812	-538.3992309570312	1451.215454101562	-284.5995178222656	-436.3219604492188	1444.44140625	-358.3419799804688	-459.5894165039062	1316.461181640625	-432.0736999511719	-440.7697143554688	1100.73095703125	-448.6618957519531	-503.4586181640625	1087.691284179688	-362.9583435058594	-343.5680847167969	865.64794921875	-376.505859375	-401.1843872070312	851.2453002929688	-435.8563537597656	-417.2621765136719	991.595703125	-452.4877624511719	-325.3731689453125	679.6644897460938	-351.1717224121094	-366.3983764648438	770.5283203125	-427.5686340332031	-319.9552001953125	783.233154296875	-375.1556701660156	-442.6975402832031	1453.19140625	-10.4391450881958	-456.7165832519531	1388.031372070312	55.49563598632812	-499.1187744140625	1131.322509765625	114.3020858764648	-488.4186401367188	1099.554565429688	20.25496101379395	-352.1368408203125	881.7874755859375	78.37850189208984	-417.8329162597656	864.7534790039062	135.7012786865234	-485.4701843261719	1049.436157226562	127.8562393188477	-336.8247375488281	692.5828247070312	69.35035705566406	-324.807373046875	780.2015991210938	80.79161834716797	-376.638427734375	776.4783935546875	137.3407135009766	-463.9903564453125	1661.902465820312	-251.2361755371094	-298.3757934570312	1688.790283203125	-115.1854934692383	-288.8241882324219	1695.872314453125	-240.7395324707031	-464.2656860351562	1646.94140625	-113.9186019897461	-521.4420776367188	967.019287109375	-351.1593933105469	-534.01708984375	957.556884765625	-4.429702281951904	-409.1987915039062	965.7833862304688	-31.8088436126709	-407.4648742675781	968.3889770507812	-297.1658020019531	-340.2074279785156	525.7966918945312	-310.1424255371094	-406.0669555664062	651.30126953125	-353.032958984375	-359.1913146972656	52.22432327270508	-339.4656677246094	-354.2203369140625	277.8122253417969	-339.6353149414062	-160.1295013427734	86.49354553222656	-340.5125732421875	-203.3028564453125	78.85811614990234	-285.8405151367188	-257.6648559570312	56.4521484375	-381.4488220214844	-408.4083557128906	44.32121276855469	-262.2297668457031	-482.9644165039062	507.4880676269531	-48.38700866699219	-463.2684936523438	777.0220947265625	-8.794998168945312	-627.1076049804688	40.7180061340332	-82.20700836181641	-518.617431640625	384.4994812011719	-49.06917572021484	-411.4398193359375	43.37410736083984	-118.0116577148438	-471.9053344726562	48.50308609008789	-156.9507446289062	-501.0939636230469	48.91389465332031	-63.95844650268555	-674.3247680664062	44.97367477416992	-141.2390289306641	
399	3.98	-599.1648559570312	1038.209228515625	-75.96512603759766	-620.9545288085938	1030.095947265625	-250.2751312255859	-602.7324829101562	1095.70947265625	-166.6561126708984	-324.3132629394531	1269.06982421875	-180.2362976074219	-598.96240234375	1230.863891601562	-170.0659637451172	-515.0222778320312	1489.995361328125	-183.3970947265625	-342.691162109375	1386.4755859375	-184.4395599365234	-584.6055908203125	1359.127685546875	-101.3973922729492	-542.534912109375	1451.8349609375	-283.5152587890625	-440.5526428222656	1445.313720703125	-357.4144592285156	-463.7625732421875	1317.284912109375	-431.1158447265625	-444.8330993652344	1101.401245117188	-447.1274719238281	-507.7275085449219	1088.662963867188	-361.5834350585938	-348.1961364746094	866.3463134765625	-373.9904174804688	-405.5640563964844	851.891357421875	-433.6238403320312	-421.437255859375	992.226806640625	-450.5863647460938	-330.4927062988281	680.352783203125	-348.1923522949219	-370.9938049316406	771.136474609375	-425.0143737792969	-324.7948608398438	783.8333740234375	-372.3056030273438	-446.6316833496094	1453.940307617188	-9.505290031433105	-460.6141052246094	1388.835693359375	56.44800186157227	-503.3701782226562	1132.234375	115.1531372070312	-492.4609375	1100.40673828125	21.16753005981445	-356.8583068847656	882.3062744140625	79.77721405029297	-422.6708068847656	865.5299682617188	137.0235900878906	-489.8271179199219	1050.359252929688	128.8212738037109	-342.0062866210938	693.0493774414062	71.03800201416016	-329.7713012695312	780.6474609375	82.36544036865234	-381.7251586914062	777.1563720703125	138.8530578613281	-467.9146423339844	1662.97119140625	-250.2382354736328	-302.2225341796875	1689.388305664062	-114.1141967773438	-292.6795654296875	1696.5888671875	-239.6374359130859	-468.2079162597656	1647.78955078125	-112.9128036499023	-525.5604858398438	967.8518676757812	-350.2014770507812	-536.6867065429688	958.0542602539062	-3.320837497711182	-412.0003967285156	966.4188232421875	-31.29429054260254	-411.2799682617188	969.2365112304688	-296.6625061035156	-342.9934387207031	526.3218383789062	-310.2825622558594	-409.204833984375	652.3485107421875	-352.7654113769531	-368.7311401367188	52.89479446411133	-340.0640563964844	-360.455322265625	278.2738647460938	-340.025146484375	-169.2600555419922	84.80706024169922	-342.3585205078125	-212.2618865966797	77.45468902587891	-287.322265625	-267.4773254394531	56.12675857543945	-382.6951293945312	-417.5465087890625	45.46719360351562	-262.4925231933594	-485.5495300292969	508.0587158203125	-47.80037307739258	-465.9783020019531	777.531005859375	-8.029974937438965	-627.1901245117188	40.53356552124023	-82.02574157714844	-520.779052734375	385.0279541015625	-48.56889343261719	-411.5076293945312	43.47197341918945	-118.0117874145508	-472.0655212402344	48.83328628540039	-156.7743682861328	-501.2095642089844	48.92897796630859	-63.81205749511719	-674.3889770507812	44.81363296508789	-141.0404663085938	
400	3.99	-602.127685546875	1038.6484375	-74.71843719482422	-624.4312744140625	1030.526611328125	-248.9402313232422	-606.0244140625	1096.05615234375	-165.3935852050781	-327.9339904785156	1269.961669921875	-179.5829772949219	-602.5271606445312	1231.307861328125	-168.9741058349609	-518.9900512695312	1490.551147460938	-182.3982086181641	-346.556884765625	1387.329711914062	-183.6740112304688	-588.2691650390625	1359.566162109375	-100.3539886474609	-546.5999145507812	1452.375122070312	-282.4585876464844	-444.7406005859375	1446.112426757812	-356.5412292480469	-467.9126586914062	1318.032348632812	-430.2065734863281	-448.8407592773438	1102.007568359375	-445.6603393554688	-511.94921875	1089.55126953125	-360.2945861816406	-352.7268981933594	867.0238647460938	-371.5394592285156	-409.8316955566406	852.4839477539062	-431.4470825195312	-425.5477600097656	992.7946166992188	-448.7607421875	-335.2965698242188	681.0650634765625	-345.3317565917969	-375.3975219726562	771.7219848632812	-422.5302734375	-329.4554443359375	784.4564819335938	-369.5556030273438	-450.4465942382812	1454.606689453125	-8.618376731872559	-464.3704528808594	1389.556884765625	57.35989379882812	-507.5486755371094	1133.067626953125	115.9339370727539	-496.4112243652344	1101.186767578125	22.00386047363281	-361.6018981933594	882.7022094726562	81.12449645996094	-427.5570068359375	866.1888427734375	138.2503814697266	-494.1464233398438	1051.198974609375	129.7047729492188	-347.2336730957031	693.4013061523438	72.61860656738281	-334.788818359375	780.969970703125	83.87088012695312	-386.8617858886719	777.7066650390625	140.2630310058594	-471.8045349121094	1663.932495117188	-249.2810211181641	-306.060546875	1689.97119140625	-113.0812072753906	-296.520263671875	1697.301025390625	-238.5743408203125	-472.1343383789062	1648.529052734375	-111.95947265625	-529.3422241210938	968.5704956054688	-349.2865905761719	-539.2871704101562	958.5082397460938	-2.316673517227173	-414.7429504394531	967.019287109375	-30.74596214294434	-414.8474426269531	970.0014038085938	-296.1327209472656	-345.695068359375	526.699462890625	-310.4541931152344	-412.2020874023438	653.3256225585938	-352.4043579101562	-378.9129638671875	53.52137756347656	-340.7724304199219	-366.9768371582031	278.6163330078125	-340.4888916015625	-179.0286560058594	82.87283325195312	-344.17333984375	-221.9037322998047	75.81891632080078	-288.7980346679688	-277.9836730957031	55.71134948730469	-383.9751586914062	-427.384033203125	46.58689880371094	-262.9142456054688	-488.1871948242188	508.6191711425781	-47.18182754516602	-468.6943359375	778.0159912109375	-7.246153831481934	-627.2723999023438	40.34945678710938	-81.85334777832031	-522.9786987304688	385.5455322265625	-48.06340789794922	-411.5902404785156	43.56886291503906	-117.9983749389648	-472.2200012207031	49.16370010375977	-156.6058807373047	-501.3318786621094	48.94407272338867	-63.65779113769531	-674.43212890625	44.62846374511719	-140.8317718505859	
401	4	-604.9928588867188	1039.01416015625	-73.62377166748047	-627.6727294921875	1030.8798828125	-247.7755737304688	-609.1497802734375	1096.321044921875	-164.2601165771484	-331.4436645507812	1270.790161132812	-178.9885711669922	-605.9828491210938	1231.653686523438	-167.9181213378906	-522.8803100585938	1491.028442382812	-181.4372863769531	-350.3251342773438	1388.116577148438	-182.9707641601562	-591.8340454101562	1359.922241210938	-99.34249114990234	-550.5866088867188	1452.833862304688	-281.4358215332031	-448.8740844726562	1446.830688476562	-355.724365234375	-472.0293884277344	1318.695678710938	-429.3497314453125	-452.7979736328125	1102.541870117188	-444.2550048828125	-516.1544189453125	1090.346923828125	-359.0791015625	-357.1547241210938	867.6687622070312	-369.1710815429688	-413.9924011230469	853.0191650390625	-429.3302917480469	-429.5965576171875	993.2911376953125	-447.0105285644531	-339.7600708007812	681.7864990234375	-342.6229858398438	-379.6031799316406	772.2796630859375	-420.1365661621094	-333.9144897460938	785.0962524414062	-366.9371032714844	-454.1447448730469	1455.184204101562	-7.778567790985107	-467.9866027832031	1390.186889648438	58.23046493530273	-511.6359252929688	1133.810180664062	116.6514511108398	-500.2687072753906	1101.880615234375	22.76742172241211	-366.3542175292969	882.9672241210938	82.41908264160156	-432.4755554199219	866.7254638671875	139.3829498291016	-498.4156188964844	1051.94580078125	130.5068359375	-352.5193481445312	693.621337890625	74.09410858154297	-339.8600769042969	781.15234375	85.30545806884766	-392.0372924804688	778.1258544921875	141.5766296386719	-475.6570129394531	1664.783813476562	-248.3652801513672	-309.8880310058594	1690.529541015625	-112.0905914306641	-300.3432312011719	1698.000854492188	-237.5563201904297	-476.0407104492188	1649.16162109375	-111.0596084594727	-532.801513671875	969.1744384765625	-348.4358825683594	-541.8576049804688	958.90673828125	-1.424794316291809	-417.4379272460938	967.5772094726562	-30.15372848510742	-418.1551208496094	970.6763305664062	-295.5556030273438	-348.3558349609375	526.9215087890625	-310.6676330566406	-415.0649108886719	654.2001953125	-351.9688110351562	-389.6610717773438	54.11384582519531	-341.5795288085938	-373.7701416015625	278.8506164550781	-341.02490234375	-189.3779449462891	80.74771118164062	-345.9837951660156	-232.1382293701172	74.02771759033203	-290.3000183105469	-289.0894775390625	55.21603012084961	-385.3009338378906	-437.8139953613281	47.68474960327148	-263.4716796875	-490.8357238769531	509.1541137695312	-46.55339813232422	-471.3990173339844	778.4703369140625	-6.472684860229492	-627.35498046875	40.17707061767578	-81.70075225830078	-525.1707763671875	386.0417785644531	-47.56832122802734	-411.6789855957031	43.6585807800293	-117.9778213500977	-472.3621215820312	49.47682952880859	-156.4562377929688	-501.4531860351562	48.96117401123047	-63.50593948364258	-674.4479370117188	44.42661285400391	-140.6243286132812	
